<svg width="54" height="66" viewBox="0 0 54 66" fill="none" xmlns="http://www.w3.org/2000/svg">
<path d="M12 24H24V18H12V24Z" fill="white"/>
<path d="M12 60H24V66H12V60Z" fill="white"/>
<path d="M30 24H42V18H30V24Z" fill="white"/>
<path d="M24 60H42V66H24V60Z" fill="white"/>
<path d="M24 24H30V18H24V24Z" fill="white"/>
<path d="M24 18H30V6H24V18Z" fill="white"/>
<path d="M6 48H12V60H6V48Z" fill="white"/>
<path d="M6 30H12V24H6V30Z" fill="white"/>
<path d="M24 30H30V24H24V30Z" fill="white"/>
<path d="M6 54H12V60H6V54Z" fill="white"/>
<path d="M18 12H24V0H18V12Z" fill="white"/>
<path d="M0 30H6V48H0V30Z" fill="white"/>
<path d="M42 48H48V60H42V48Z" fill="white"/>
<path d="M42 30H48V24H42V30Z" fill="white"/>
<path d="M30 6H36V0H30V6Z" fill="white"/>
<path d="M36 6H42V0H36V6Z" fill="white"/>
<path d="M48 30H54V48H48V30Z" fill="white"/>
</svg>
