<svg width="76" height="69" viewBox="0 0 76 69" fill="none" xmlns="http://www.w3.org/2000/svg">
<path d="M62.7273 69H69V62.7273H62.7273V69Z" fill="white"/>
<path d="M56.4545 31.3636H62.7273V18.8181H56.4545V31.3636Z" fill="white"/>
<path d="M18.8182 62.7273H25.0909V50.1819H18.8182V62.7273Z" fill="white"/>
<path d="M12.5454 50.1818L18.8182 50.1819L18.8182 43.909H12.5454V50.1818Z" fill="white"/>
<path d="M0 43.9092L12.5454 43.909L12.5455 37.6364H0V43.9092Z" fill="white"/>
<path d="M56.4545 62.7273L62.7273 62.7273L62.7273 56.4546H56.4545V62.7273Z" fill="white"/>
<path d="M43.9091 18.8182L56.4545 18.8181L56.4546 12.5454H43.9091V18.8182Z" fill="white"/>
<path d="M12.5455 37.6364L18.8182 37.6364V31.3637H12.5454L12.5455 37.6364Z" fill="white"/>
<path d="M25.0909 37.6364H31.3637V31.3637H25.0909V37.6364Z" fill="white"/>
<path d="M25.0909 50.1819L31.3637 50.1818V43.909H25.0909L25.0909 50.1819Z" fill="white"/>
<path d="M62.7273 56.4546L69 56.4546V50.1819H62.7273L62.7273 56.4546Z" fill="white"/>
<path d="M56.4546 12.5454L62.7273 12.5455V0H56.4545L56.4546 12.5454Z" fill="white"/>
<path d="M18.8182 31.3637H25.0909L25.0909 18.8181H18.8182L18.8182 31.3637Z" fill="white"/>
<path d="M69 62.7273L75.2727 62.7273V56.4546L69 56.4546V62.7273Z" fill="white"/>
<path d="M62.7273 18.8181L75.2727 18.8182V12.5454L62.7273 12.5455V18.8181Z" fill="white"/>
<path d="M31.3637 43.909L43.9091 43.9092V37.6364L31.3637 37.6364V43.909Z" fill="white"/>
</svg>
