<svg width="60" height="57" viewBox="0 0 60 57" fill="none" xmlns="http://www.w3.org/2000/svg">
<path d="M8.57144 9.5V8.30514e-07L25.7143 0V9.49976H34.2857V18.9998H25.7143L25.7143 9.49976L8.57144 9.5Z" fill="white"/>
<path d="M8.57144 9.5L0 9.49998V28.5H8.57143L8.57144 9.5Z" fill="white"/>
<path d="M51.4286 9.5H60V28.5H51.4286L51.4286 37.9998H42.8571V28.4998L51.4286 28.5V9.5Z" fill="white"/>
<path d="M51.4286 9.5L34.2857 9.49976L34.2857 0L51.4286 8.30514e-07L51.4286 9.5Z" fill="white"/>
<path d="M8.57144 37.9998L8.57143 28.5L17.1429 28.4998V37.9998H8.57144Z" fill="white"/>
<path fill-rule="evenodd" clip-rule="evenodd" d="M17.1429 47.4999L17.1429 37.9998L25.7143 37.9999L25.7143 47.4999H17.1429ZM25.7143 47.4999H34.2857V56.9999H25.7143L25.7143 47.4999Z" fill="white"/>
<path d="M42.8571 37.9998L42.8572 47.4999H34.2857L34.2857 37.9999L42.8571 37.9998Z" fill="white"/>
</svg>
