<svg width="19" height="16" viewBox="0 0 19 16" fill="none" xmlns="http://www.w3.org/2000/svg">
<path d="M4 4H5V5H4V6H3V9H2V10H1V11H2V10H3V12H4V13H5V15H6V14H8V15H7V16H4V14H3V13H2V12H0V9H1V8H2V5H3V3H2V1H3V2H4V4Z" fill="#060606"/>
<path d="M17 3H16V5H17V8H18V9H19V12H17V13H16V14H15V16H12V15H11V14H13V15H14V13H15V12H16V10H17V11H18V10H17V9H16V6H15V5H14V4H15V2H16V1H17V3Z" fill="#060606"/>
<path d="M11 14H8V13H11V14Z" fill="#060606"/>
<path d="M11 5H8V4H11V5Z" fill="#060606"/>
<path d="M6 1H7V3H8V4H5V3H6V2H5V0H6V1Z" fill="#060606"/>
<path d="M14 2H13V3H14V4H11V3H12V1H13V0H14V2Z" fill="#060606"/>
<path d="M6 7H9V8H6V7Z" fill="#060606"/>
<path d="M11 6H12V9H11V6Z" fill="#060606"/>
<path d="M7 10H8V11H7V10Z" fill="#060606"/>
<path d="M11 10H12V11H11V10Z" fill="#060606"/>
<path d="M8 11H11V12H8V11Z" fill="#060606"/>
</svg>
